<?xml version="1.0" encoding="utf-8"?>
<!-- Generator: Adobe Illustrator 23.0.0, SVG Export Plug-In . SVG Version: 6.00 Build 0)  -->
<svg version="1.1" id="Capa_1" xmlns="http://www.w3.org/2000/svg" xmlns:xlink="http://www.w3.org/1999/xlink" x="0px" y="0px"
	 viewBox="0 0 200 40" style="enable-background:new 0 0 200 40;" xml:space="preserve">
<style type="text/css">
	.st0{fill:#FFFFFF;}
</style>
<title>Bioderma_Logo_001</title>
<g>
	<path class="st0" d="M170.6,0.3h-1.3l-9.5,18.5l-9.6-18.5h-1.4l-2.7,20.3c-0.1,1.3-0.5,2.6-1,3.8h2.7c-0.2-1.3-0.2-2.7,0.1-4
		L149.6,8l8.5,16.4h1L167.6,8l1.6,12.1c0.2,1.4,0.2,2.8-0.1,4.2h5.3c-0.6-1.2-0.9-2.5-1-3.8L170.6,0.3z"/>
	<path class="st0" d="M50,0c-7.7,0-13.8,5.4-13.8,12.5S42.2,24.9,50,24.9s13.8-5.4,13.8-12.4S57.7,0,50,0z M50.4,23
		c-5.4,0-9.6-4.6-9.8-10.6c-0.2-6,3.3-10.6,9-10.6c5.4,0,9.6,4.6,9.8,10.6C59.6,18.5,55.7,23,50.4,23L50.4,23z"/>
	<path class="st0" d="M194.5,24.4h5.5c-1.1-1.1-2-2.5-2.6-3.9l-8.6-20.1h-1L179,21c-0.5,1.2-1.2,2.4-2,3.4h2.5l3.3-8h8.4L194.5,24.4
		z M183.5,14.7l3.5-8.5l3.5,8.5H183.5z"/>
	<path class="st0" d="M12.7,10.4C14.6,9.7,15.9,8,16,6c0.1-2.1-1.2-4.1-3.2-4.8C11,0.6,9.1,0.3,7.2,0.4H0c0.5,1,0.7,2,0.7,3.1v17.6
		c0.1,1.1-0.1,2.3-0.7,3.2h7.7c2.2,0,4.5-0.3,6.6-1.1c2.3-1.1,3.7-3.5,3.6-6C17.8,14.1,15.7,11.3,12.7,10.4z M4.7,2c0.4,0,1,0,1.7,0
		C7.2,2,8,2,8.7,2.2C10.6,2.5,12,4.1,11.9,6C12,7.7,10.7,9.2,9,9.4C8.6,9.5,7.5,9.6,7.1,9.6c-0.9,0-1.8,0-2.4,0L4.7,2z M9.5,22.6
		c-0.7,0.1-1.3,0.2-2,0.2c-0.3,0-2.3,0-2.8,0V11.1c0.3,0,1.7,0,2.2,0c0.8,0,1.5,0.1,2.2,0.2c2.8,0.5,4.8,3.1,4.4,6
		C13.8,19.8,12,22.1,9.5,22.6z"/>
	<path class="st0" d="M104.4,22.7l0-11.5h8.5l0.6-1.6h-9.1V2h6.6c1.4-0.1,2.9,0.3,4.2,1L114,0.4H99.7c0.5,1,0.7,2,0.6,3.1v17.6
		c0.1,1.1-0.1,2.3-0.7,3.2h15.7l1.2-2.6c-1.4,0.7-3,1-4.6,1L104.4,22.7z"/>
	<path class="st0" d="M84,0.9c-1.4-0.3-2.9-0.4-4.4-0.5h-9.7c0.5,1,0.7,2,0.6,3.1v17.6c0.1,1.1-0.1,2.3-0.6,3.2H79
		c1.4,0,2.7-0.1,4.1-0.3c6.8-0.9,10.8-5.5,10.8-11.5C93.9,6.6,89.8,2.3,84,0.9z M81.5,22.6c-1,0.1-1.9,0.2-2.9,0.2c-2,0-3.2,0-4-0.1
		V2.1c0.8,0,2.4-0.1,3.3-0.1c1.6,0,3.3,0.2,4.9,0.7c4.1,1.4,6.8,5.4,6.6,9.7C89.4,17.9,87,21.8,81.5,22.6z"/>
	<path class="st0" d="M30.1,0.4h-5.3c0.5,1,0.7,2,0.6,3.1v17.6c0.1,1.1-0.1,2.3-0.7,3.2H30c-0.5-1-0.7-2-0.6-3.1V3.6
		C29.3,2.5,29.5,1.4,30.1,0.4z"/>
	<path class="st0" d="M131.5,13.2c3.2-0.3,7.1-2.1,7.1-6.1c0-3.9-2.6-5.6-5.5-6.2c-2.1-0.4-4.2-0.5-6.4-0.5h-5c0.5,1,0.7,2,0.6,3.1
		v17.6c0.1,1.1-0.1,2.3-0.7,3.2h5.4c-0.5-1-0.8-2.1-0.7-3.2V2c1.3-0.1,2.6,0,3.9,0.2c2.4,0.3,4.2,2.4,4,4.9c0,2.7-1.7,5.8-6.6,4.8
		l-0.5,0.4c2.8,4.6,6.3,8.7,10.4,12.1h6.1C139.2,21.3,135,17.5,131.5,13.2z"/>
	<path class="st0" d="M1.3,37.7h2.7v0.8H0V32h1.2L1.3,37.7z"/>
	<path class="st0" d="M6.9,38.5H5.8L8.7,32h0.7l2.6,6.5h-1.3l-0.7-1.6H7.6L6.9,38.5z M8.9,33.8l-1,2.3h1.9L8.9,33.8z"/>
	<path class="st0" d="M14.7,32h2.1c1.5,0,2.4,0.7,2.4,1.5c0,0.7-0.5,1.3-1.2,1.5c0.9,0,1.7,0.7,1.8,1.6c0,1.1-1.3,1.9-2.6,1.9h-2.5
		L14.7,32z M18.5,36.6c0-0.6-0.5-1.1-1.5-1.1h-1v2.2h1C17.9,37.7,18.5,37.3,18.5,36.6L18.5,36.6z M16.6,34.8c0.8,0,1.3-0.4,1.3-1.1
		c0-0.6-0.4-1-1.4-1h-0.6v2.1H16.6z"/>
	<path class="st0" d="M29.6,35.3c0,1.9-1.6,3.4-3.4,3.4c-0.1,0-0.1,0-0.2,0c-1.8,0.2-3.5-1.2-3.6-3c0-0.1,0-0.2,0-0.3
		c0-1.9,1.6-3.4,3.5-3.4c0.1,0,0.1,0,0.2,0c1.8-0.2,3.4,1.1,3.6,3C29.6,35,29.6,35.1,29.6,35.3z M23.6,35.3
		c-0.1,1.3,0.8,2.4,2.1,2.5c1.3,0.1,2.4-0.8,2.5-2.1c0-0.1,0-0.3,0-0.4c0.1-1.3-0.8-2.4-2.1-2.5s-2.4,0.8-2.5,2.1
		C23.6,35,23.6,35.1,23.6,35.3z"/>
	<path class="st0" d="M36.5,38.6l-2-3h-0.7v2.9h-1.2V32h2c1.7,0,2.6,0.9,2.6,1.7c-0.1,0.8-0.6,1.4-1.4,1.6l2.2,3.1L36.5,38.6z
		 M34.4,34.8c1,0,1.5-0.5,1.5-1c0-0.5-0.4-1-1.4-1h-0.7v2H34.4z"/>
	<path class="st0" d="M40.7,38.5h-1.1l2.9-6.5h0.7l2.6,6.5h-1.3L44,36.9h-2.6L40.7,38.5z M42.7,33.8l-1,2.3h1.9L42.7,33.8z"/>
	<path class="st0" d="M46.9,32.1h5.8v0.8h-2.3v5.6h-1.2v-5.6h-2.3L46.9,32.1z"/>
	<path class="st0" d="M61.6,35.3c0,1.9-1.6,3.4-3.4,3.4c-0.1,0-0.1,0-0.2,0c-1.8,0.2-3.5-1.2-3.6-3c0-0.1,0-0.2,0-0.3
		c0-1.9,1.6-3.4,3.4-3.4c0.1,0,0.1,0,0.2,0c1.8-0.2,3.4,1.1,3.6,3C61.6,35,61.6,35.2,61.6,35.3z M55.7,35.3
		c-0.1,1.3,0.8,2.4,2.1,2.5c1.3,0.1,2.4-0.8,2.5-2.1c0-0.1,0-0.3,0-0.4c0.1-1.3-0.8-2.4-2.1-2.5c-1.3-0.1-2.4,0.8-2.5,2.1
		C55.7,35,55.7,35.2,55.7,35.3z"/>
	<path class="st0" d="M64.6,38.5v-6.5h1.2v6.5H64.6z"/>
	<path class="st0" d="M73.1,38.6l-2-3h-0.7v2.9h-1.2v-6.5h2c1.7,0,2.6,0.9,2.6,1.7c-0.1,0.8-0.6,1.4-1.4,1.6l2.2,3.2L73.1,38.6z
		 M71,34.9c1,0,1.4-0.5,1.4-1c0-0.5-0.4-1-1.4-1h-0.7v2H71z"/>
	<path class="st0" d="M81.4,38.5h-4.3v-6.5h4.2v0.8h-3v1.9h2.2v0.8h-2.2v2.1h3.1L81.4,38.5z"/>
	<path class="st0" d="M88.6,32.1h2.2c2.3,0,3.9,1.2,3.9,3.2c-0.2,2-1.9,3.4-3.9,3.2h-2.2L88.6,32.1z M90.9,37.7
		c1.4,0,2.5-1.1,2.5-2.4c0-1.3-1-2.4-2.3-2.4c-0.1,0-0.2,0-0.3,0h-1v4.8L90.9,37.7z"/>
	<path class="st0" d="M102,38.6h-4.3v-6.5h4.2v0.8h-3v1.9h2.2v0.8h-2.2v2.1h3.1V38.6z"/>
	<path class="st0" d="M108.8,38.7l-2-3H106v2.9h-1.2v-6.5h2c1.7,0,2.6,0.9,2.6,1.7c-0.1,0.8-0.6,1.4-1.4,1.6l2.2,3.2L108.8,38.7z
		 M106.7,34.9c1,0,1.5-0.5,1.5-1c0-0.5-0.4-1-1.4-1h-0.7v2L106.7,34.9z"/>
	<path class="st0" d="M119.9,38.6h-1.2l-0.1-4.4l-2.1,4.4h-0.8l-2-4.3l-0.2,4.3h-1l0.3-6.5h1.2l2.3,5l2.3-5h1.1L119.9,38.6z"/>
	<path class="st0" d="M123.5,38.6h-1.1l2.9-6.5h0.7l2.6,6.5h-1.3l-0.7-1.6h-2.6L123.5,38.6z M125.5,33.9l-1,2.3h1.9L125.5,33.9z"/>
	<path class="st0" d="M129.7,32.1h5.8V33h-2.3v5.6H132V33h-2.3L129.7,32.1z"/>
	<path class="st0" d="M144.4,35.4c0,1.9-1.6,3.4-3.4,3.4c-0.1,0-0.1,0-0.2,0c-1.8,0.2-3.5-1.2-3.6-3c0-0.1,0-0.2,0-0.3
		c0-1.9,1.6-3.4,3.4-3.4c0.1,0,0.1,0,0.2,0c1.8-0.2,3.4,1.1,3.6,3C144.4,35.1,144.4,35.2,144.4,35.4z M138.4,35.4
		c-0.1,1.3,0.8,2.4,2.1,2.5c1.3,0.1,2.4-0.8,2.5-2.1c0-0.1,0-0.3,0-0.4c0.1-1.3-0.8-2.4-2.1-2.5c-1.3-0.1-2.4,0.8-2.5,2.1
		C138.4,35.1,138.4,35.2,138.4,35.4z"/>
	<path class="st0" d="M148.6,37.8h2.7v0.8h-3.9v-6.5h1.2V37.8z"/>
	<path class="st0" d="M160.4,35.4c0,1.9-1.6,3.4-3.4,3.4c-0.1,0-0.1,0-0.2,0c-1.8,0.2-3.5-1.2-3.6-3c0-0.1,0-0.2,0-0.3
		c0-1.9,1.6-3.4,3.4-3.4c0.1,0,0.1,0,0.2,0c1.8-0.2,3.4,1.1,3.6,3C160.4,35.1,160.4,35.2,160.4,35.4z M154.5,35.4
		c-0.1,1.3,0.8,2.4,2.1,2.5c1.3,0.1,2.4-0.8,2.5-2.1c0-0.1,0-0.3,0-0.4c0.1-1.3-0.8-2.4-2.1-2.5c-1.3-0.1-2.4,0.8-2.5,2.1
		C154.4,35.1,154.4,35.2,154.5,35.4z"/>
	<path class="st0" d="M166.9,38.7c-1.9,0.2-3.5-1.1-3.8-3c-0.2-1.9,1.1-3.5,3-3.8c0.3,0,0.5,0,0.8,0c0.8,0,1.6,0.1,2.4,0.4l-0.4,0.8
		c-0.6-0.3-1.3-0.4-2-0.4c-1.4,0-2.5,1.1-2.5,2.5c0,1.4,1.1,2.5,2.5,2.5c0,0,0.1,0,0.1,0c0.4,0,0.9,0,1.3-0.2v-1.9h1.2v2.4
		C168.7,38.6,167.8,38.8,166.9,38.7z"/>
	<path class="st0" d="M172.4,38.6v-6.5h1.2l0,6.5L172.4,38.6z"/>
	<path class="st0" d="M183.8,39.1l-0.4,0.9l-4.2-1.3c-1.5-0.3-2.6-1.7-2.6-3.2c0-1.9,1.6-3.4,3.4-3.4c0.1,0,0.1,0,0.2,0
		c1.8-0.2,3.4,1.1,3.6,3c0,0.1,0,0.3,0,0.4c0,1.5-1,2.7-2.4,3.1L183.8,39.1z M177.9,35.4c-0.1,1.3,0.8,2.4,2.1,2.5
		c1.3,0.1,2.4-0.8,2.5-2.1c0-0.1,0-0.3,0-0.4c0.1-1.3-0.8-2.4-2.1-2.5c-1.3-0.1-2.4,0.8-2.5,2.1C177.9,35.1,177.9,35.2,177.9,35.4z"
		/>
	<path class="st0" d="M192.5,36.5c0,1-0.8,2.3-2.9,2.3c-1.9,0-2.9-0.9-2.9-2.2v-4.4h1.2l0,4.2c0,1,0.5,1.5,1.7,1.5
		c0.8,0.1,1.6-0.5,1.7-1.3c0-0.1,0-0.1,0-0.2v-4.2h1.1L192.5,36.5z"/>
	<path class="st0" d="M200,38.6h-4.3v-6.5h4.2V33h-3v1.9h2.2v0.8h-2.2v2.1h3.1L200,38.6z"/>
</g>
</svg>
