<?xml version="1.0" encoding="utf-8"?>
<!-- Generator: Adobe Illustrator 23.0.0, SVG Export Plug-In . SVG Version: 6.00 Build 0)  -->
<svg version="1.1" id="Capa_1" xmlns="http://www.w3.org/2000/svg" xmlns:xlink="http://www.w3.org/1999/xlink" x="0px" y="0px"
	 viewBox="0 0 300 58.5" style="enable-background:new 0 0 300 58.5;" xml:space="preserve">
<style type="text/css">
	.st0{fill:#FFFFFF;}
	.st1{fill:#FEDB03;}
	.st2{fill:#FEBD00;}
	.st3{fill:#FE8E00;}
</style>
<g>
	<path class="st0" d="M91.8,19.7c0,7,0,14.6,0,21.6c0,1.3,0,1.9,0,3.2c0,1.9-0.6,3.2-2.5,3.2c-1.9,0-1.9-1.9-1.9-3.2
		c0-4.4,0-9.5,0-14s0-9.5,0-14c0-1.9-0.6-4.4,1.9-5.7c2.5-0.6,3.2,1.9,4.4,3.2c5.7,7,11.5,14,17.2,21.6c0.6,1.3,1.9,1.9,3.8,4.4
		c0-8.3,0-15.3,0-22.2c0-1.9-1.3-5.7,2.5-5.7c3.2,0,1.9,3.8,1.9,5.7c0,8.9,0,17.8,0,26.7c0,1.3,0,3.2-1.3,3.8
		c-1.9,0.6-2.5-0.6-3.8-1.9c-3.8-4.4-7-8.9-10.8-13.3c-3.2-4.4-7-8.9-10.2-12.7C92.5,19,92.5,19.7,91.8,19.7z"/>
	<path class="st0" d="M227.3,48.3c-10.8,0-18.4-8.3-18.4-19.1c0-10.2,8.3-19.1,19.1-18.4c10.8,0,18.4,8.3,18.4,19.1
		C245.7,40,237.4,48.3,227.3,48.3z M212.6,29.2c0,8.3,6.4,14.6,14.6,14.6c8.3,0,14.6-6.4,14-15.3c0-8.3-6.4-14.6-14.6-14.6
		C219,14.6,212.6,20.9,212.6,29.2z"/>
	<path class="st0" d="M287,10.8c3.8,0,7,0.6,10.2,3.2c1.3,0.6,1.9,1.3,1.3,3.2c-0.6,1.3-1.9,1.3-3.2,0.6c-3.2-2.5-7-3.2-10.8-2.5
		c-3.2,0.6-5.1,1.9-5.7,5.1c-0.6,2.5,1.3,4.4,3.8,5.1c3.2,1.3,6.4,1.9,9.5,2.5c6.4,1.9,8.9,5.1,8.3,10.8c-0.6,4.4-4.4,8.3-9.5,8.9
		c-5.7,0.6-10.8,0-15.3-3.2c-1.3-0.6-3.2-1.9-1.9-3.8c1.3-1.9,2.5-0.6,3.8,0c3.8,2.5,7.6,3.8,12.1,3.2c3.2-0.6,5.7-1.9,6.4-5.7
		c0.6-3.8-1.9-5.1-5.1-6.4c-2.5,0-4.4-0.6-7-1.3c-7-1.9-10.2-5.7-9.5-11.5C274.9,13.9,280,10.8,287,10.8z"/>
	<path class="st0" d="M182.7,45.1c0,1.3,0,1.9-1.3,2.5c-1.3,0.6-1.9,0-2.5-0.6c-0.6-0.6-0.6-1.3-0.6-1.9c-1.3-6.4-5.7-8.3-12.1-7
		c-1.3,0-1.9,0-3.2,0c-5.7-1.3-10.2,0.6-11.5,7c0,1.3-1.3,3.2-3.2,2.5c-1.9-1.3-0.6-3.2,0-4.4c4.4-9.5,8.9-19.7,13.3-29.2
		c0.6-1.3,1.3-3.2,3.2-3.2c1.9,0,2.5,0.6,3.2,1.9c5.1,10.2,9.5,20.4,14.6,31.1C182.7,44.5,182.7,45.1,182.7,45.1z M164.9,15.8
		c-2.5,5.7-5.1,10.8-7.6,15.9c-0.6,1.9,0,2.5,1.9,2.5c4.4,0,8.9,0,14,0C170.7,27.9,168.1,22.2,164.9,15.8z"/>
	<path class="st1" d="M29.7,10.9c-0.8-1-1.6-2-2.5-2.9C20,0.9,10.1-1.3,1.5,1.4c-2.7,8.5-0.4,18.5,6.7,25.6c0.8,0.8,1.6,1.5,2.5,2.2
		c4.1-3.2,9-5.1,13.8-5.5C25,19.2,26.8,14.8,29.7,10.9z"/>
	<path class="st1" d="M10.7,29.2c-0.9,0.7-1.7,1.4-2.5,2.2c-7.1,7.1-9.4,17.1-6.7,25.6c8.5,2.7,18.5,0.4,25.6-6.7
		c0.9-0.9,1.8-1.9,2.5-2.9c-2.9-3.8-4.6-8.3-5.1-12.7C19.7,34.2,14.9,32.4,10.7,29.2z"/>
	<path class="st1" d="M48.6,29.2c0.9-0.7,1.7-1.4,2.5-2.2c7.1-7.1,9.4-17.1,6.7-25.6C49.2-1.3,39.2,1,32.2,8.1
		C31.2,9,30.4,10,29.7,11c2.9,3.8,4.6,8.3,5.1,12.7C39.6,24.1,44.4,25.9,48.6,29.2z"/>
	<path class="st1" d="M48.6,29.2c-4.1,3.2-9,5.1-13.8,5.5c-0.5,4.4-2.2,8.9-5.1,12.7c0.8,1,1.6,2,2.5,2.9c7.1,7.1,17.1,9.4,25.6,6.7
		c2.7-8.5,0.4-18.5-6.7-25.6C50.3,30.6,49.5,29.8,48.6,29.2z"/>
	<path class="st2" d="M34.7,23.7c-0.5-4.4-2.2-8.9-5.1-12.7c-2.9,3.9-4.6,8.3-5.1,12.7c-4.8,0.4-9.7,2.3-13.8,5.5
		c4.1,3.2,9,5.1,13.8,5.5c0.5,4.4,2.2,8.9,5.1,12.7c2.9-3.8,4.6-8.3,5.1-12.7c4.8-0.4,9.7-2.3,13.8-5.5
		C44.4,25.9,39.6,24.1,34.7,23.7z M33.8,33.6c-1.4,0.4-2.8,0.7-4.2,0.9c-1.4-0.2-2.8-0.5-4.2-0.9c-0.5-1.4-0.8-2.9-0.9-4.5
		c0.2-1.5,0.5-3,0.9-4.5c1.4-0.4,2.8-0.7,4.2-0.9c1.4,0.2,2.8,0.5,4.2,0.9c0.5,1.4,0.8,2.9,0.9,4.5C34.6,30.7,34.3,32.2,33.8,33.6z"
		/>
	<path class="st3" d="M34.8,29.2c-0.2-1.5-0.5-3-0.9-4.5c-1.4-0.4-2.8-0.7-4.2-0.9c-1.4,0.2-2.8,0.5-4.2,0.9
		c-0.5,1.4-0.8,2.9-0.9,4.5c0.2,1.5,0.5,3,0.9,4.5c1.4,0.4,2.8,0.7,4.2,0.9c1.4-0.2,2.8-0.5,4.2-0.9C34.3,32.2,34.6,30.7,34.8,29.2z
		"/>
</g>
</svg>
