<?xml version="1.0" encoding="utf-8"?>
<!-- Generator: Adobe Illustrator 23.0.0, SVG Export Plug-In . SVG Version: 6.00 Build 0)  -->
<svg version="1.1" id="Capa_1" xmlns="http://www.w3.org/2000/svg" xmlns:xlink="http://www.w3.org/1999/xlink" x="0px" y="0px"
	 viewBox="0 0 512 367.3" style="enable-background:new 0 0 512 367.3;" xml:space="preserve">
<style type="text/css">
	.st0{fill:#464545;}
</style>
<g id="Grupo_577" transform="translate(-10512 -9800)">
	<g id="Grupo_540" transform="translate(10512 9800)">
		<path id="Trazado_2101" class="st0" d="M54.9,109.8C24.6,109.8,0,85.2,0,54.9S24.6,0,54.9,0s54.9,24.6,54.9,54.9
			S85.2,109.7,54.9,109.8z M54.9,19.8c-19.4,0-35.1,15.7-35.1,35.1S35.5,90,54.9,90S90,74.3,90,54.9S74.3,19.8,54.9,19.8L54.9,19.8z
			"/>
	</g>
	<g id="Grupo_541" transform="translate(10524.168 9802.564)">
		<rect id="Rectángulo_252" x="156.3" y="32.9" class="st0" width="343.5" height="38.8"/>
	</g>
	<circle id="Elipse_26" class="st0" cx="10566.9" cy="9983.6" r="54.9"/>
	<g id="Grupo_542" transform="translate(10524.168 9811.862)">
		<rect id="Rectángulo_253" x="156.3" y="152.3" class="st0" width="37.8" height="38.8"/>
	</g>
	<g id="Grupo_543" transform="translate(10528.584 9811.862)">
		<rect id="Rectángulo_254" x="213.1" y="152.3" class="st0" width="37.8" height="38.8"/>
	</g>
	<g id="Grupo_544" transform="translate(10532.999 9811.862)">
		<rect id="Rectángulo_255" x="269.8" y="152.3" class="st0" width="37.8" height="38.8"/>
	</g>
	<g id="Grupo_545" transform="translate(10537.415 9811.862)">
		<rect id="Rectángulo_256" x="326.5" y="152.3" class="st0" width="37.8" height="38.8"/>
	</g>
	<g id="Grupo_546" transform="translate(10541.83 9811.862)">
		<rect id="Rectángulo_257" x="383.2" y="152.3" class="st0" width="37.8" height="38.8"/>
	</g>
	<rect id="Rectángulo_258" x="10986.2" y="9964.2" class="st0" width="37.8" height="38.8"/>
	<g id="Grupo_547" transform="translate(10512 9818.595)">
		<path id="Trazado_2102" class="st0" d="M54.9,348.7c-30.3,0-54.9-24.6-54.9-55c0-30.3,24.6-54.9,54.9-54.9s54.9,24.6,54.9,54.9
			C109.8,324.1,85.2,348.6,54.9,348.7z M54.9,258.7c-19.4,0-35.1,15.7-35.1,35.1s15.7,35.1,35.1,35.1S90,313.2,90,293.8l0,0
			C90,274.4,74.3,258.7,54.9,258.7L54.9,258.7z"/>
	</g>
	<g id="Grupo_548" transform="translate(10524.168 9821.159)">
		<rect id="Rectángulo_259" x="156.3" y="271.8" class="st0" width="343.5" height="38.8"/>
	</g>
</g>
</svg>
