<?xml version="1.0" encoding="utf-8"?>
<!-- Generator: Adobe Illustrator 23.0.0, SVG Export Plug-In . SVG Version: 6.00 Build 0)  -->
<svg version="1.1" id="Capa_1" xmlns="http://www.w3.org/2000/svg" xmlns:xlink="http://www.w3.org/1999/xlink" x="0px" y="0px"
	 viewBox="0 0 512 425.8" style="enable-background:new 0 0 512 425.8;" xml:space="preserve">
<style type="text/css">
	.st0{fill:#464545;}
</style>
<path id="Trazado_2029" class="st0" d="M75.5,119.3c16.6,0,30-13.4,30-30s-13.4-30-30-30s-30,13.4-30,30
	C45.5,105.8,58.9,119.3,75.5,119.3z M75.5,70.1c10.6,0,19.2,8.6,19.3,19.2c0,10.6-8.6,19.2-19.2,19.3c-10.6,0-19.2-8.6-19.3-19.2
	l0,0C56.3,78.7,64.9,70.1,75.5,70.1z"/>
<path id="Trazado_2030" class="st0" d="M27,215.5c1.3,0,2.6-0.5,3.6-1.3l87.9-77.4l55.5,55.5c2.1,2.1,5.5,2.1,7.6,0s2.1-5.5,0-7.6
	l0,0l-25.9-25.9l49.4-54.2l60.6,55.6c2.2,2,5.6,1.9,7.6-0.3s1.9-5.6-0.3-7.6l-64.7-59.2c-1.1-0.9-2.5-1.4-3.9-1.4
	c-1.4,0.1-2.8,0.7-3.7,1.7L148,151.1l-25.5-25.5c-2-2-5.2-2.1-7.4-0.2l-91.7,80.7c-2.2,2-2.5,5.4-0.5,7.6
	C24,214.8,25.5,215.5,27,215.5z"/>
<g id="picture-2" transform="translate(13 11)">
	<path id="Trazado_2028-2" class="st0" d="M493.8,167H202.5c-2.9,0-5.3,2.4-5.2,5.4l0,0v237c-0.1,2.9,2.3,5.3,5.2,5.4l0,0h291.3
		c2.9,0,5.3-2.4,5.2-5.4l0,0v-237C499.1,169.5,496.7,167.1,493.8,167L493.8,167z M488.6,404H207.7V177.8h280.9L488.6,404L488.6,404z
		"/>
	<path id="Trazado_2029-2" class="st0" d="M272.8,286.2c16.6,0,30-13.4,30-30s-13.4-30-30-30s-30,13.4-30,30
		C242.8,272.8,256.2,286.2,272.8,286.2z M272.8,237c10.6,0,19.2,8.6,19.3,19.2c0,10.6-8.6,19.2-19.2,19.3
		c-10.6,0-19.2-8.6-19.3-19.2l0,0C253.6,245.6,262.2,237.1,272.8,237z"/>
	<path id="Trazado_2030-2" class="st0" d="M224.3,382.4c1.3,0,2.6-0.5,3.6-1.3l87.9-77.4l55.5,55.5c2.1,2.1,5.5,2.1,7.6,0
		s2.1-5.5,0-7.6l0,0L353,325.7l49.4-54.2l60.6,55.6c2.2,2,5.6,1.9,7.6-0.3c2-2.2,1.9-5.6-0.3-7.6L405.6,260
		c-1.1-0.9-2.5-1.4-3.9-1.4c-1.4,0.1-2.8,0.7-3.7,1.7l-52.7,57.8l-25.5-25.6c-2-2-5.2-2.1-7.4-0.2L220.7,373c-2.2,2-2.5,5.4-0.5,7.6
		C221.3,381.8,222.8,382.4,224.3,382.4z"/>
</g>
<path class="st0" d="M188.9,237H10.4V10.8h280.9v146c0,2.9,2.3,5.2,5.2,5.2l0,0c2.9,0,5.2-2.3,5.2-5.2V5.4c0.1-2.9-2.3-5.3-5.2-5.4
	l0,0H5.2C2.3,0-0.1,2.4,0,5.4l0,0v237c-0.1,2.9,2.3,5.3,5.2,5.4l0,0h183.7c3,0,5.4-2.4,5.4-5.4l0,0C194.3,239.4,191.9,237,188.9,237
	z"/>
</svg>
