<?xml version="1.0" encoding="utf-8"?>
<!-- Generator: Adobe Illustrator 23.0.0, SVG Export Plug-In . SVG Version: 6.00 Build 0)  -->
<svg version="1.1" id="Capa_1" xmlns="http://www.w3.org/2000/svg" xmlns:xlink="http://www.w3.org/1999/xlink" x="0px" y="0px"
	 viewBox="0 0 512 163.4" style="enable-background:new 0 0 512 163.4;" xml:space="preserve">
<style type="text/css">
	.st0{fill:#1D1D1B;}
</style>
<g id="Grupo_588" transform="translate(-10514.5 -10519.127)">
	<g id="Grupo_580" transform="translate(10514.5 10519.127)">
		<g id="Grupo_554" transform="translate(0 0)">
			<path id="Trazado_2104" class="st0" d="M161.7,72.1H0V0h161.7V72.1z M7.5,64.6h146.7V7.5H7.5V64.6z"/>
		</g>
		<g id="Grupo_555" transform="translate(16.135 0)">
			<path id="Trazado_2105" class="st0" d="M320.7,72.1H159V0h161.7V72.1z M166.5,64.6h146.7V7.5H166.5V64.6z"/>
		</g>
		<g id="Grupo_556" transform="translate(32.271 0)">
			<path id="Trazado_2106" class="st0" d="M479.7,72.1H318V0h161.7V72.1z M325.5,64.6h146.7V7.5H325.5V64.6z"/>
		</g>
		<g id="Grupo_557" transform="translate(0 8.414)">
			<path id="Trazado_2107" class="st0" d="M161.7,155H0V82.9h161.7V155z M7.5,147.5h146.7V90.4H7.5V147.5z"/>
		</g>
		<g id="Grupo_558" transform="translate(16.135 8.414)">
			<path id="Trazado_2108" class="st0" d="M320.7,155H159V82.9h161.7V155z M166.5,147.5h146.7V90.4H166.5V147.5z"/>
		</g>
		<g id="Grupo_572" transform="translate(6.765 1.195)">
			<path id="Trazado_2115" d="M75.9,17.5L75.9,17.5l-8,4.2L66.7,17l9.9-5.3h5.2v45.2h-5.9V17.5z"/>
		</g>
		<g id="Grupo_573" transform="translate(22.3 1.195)">
			<path id="Trazado_2116" d="M219.8,57v-3.7l4.7-4.6c11.4-10.9,16.5-16.6,16.6-23.3c0.4-4.4-2.7-8.3-7.1-8.7
				c-0.6-0.1-1.2-0.1-1.7,0c-3.5,0.1-6.8,1.5-9.4,3.8l-1.9-4.2c3.5-2.9,8-4.5,12.6-4.5c6.9-0.6,13,4.5,13.6,11.4c0,0.5,0.1,1,0,1.6
				c0,8.2-6,14.9-15.3,23.9l-3.6,3.3v0.1h20v5L219.8,57z"/>
		</g>
		<g id="Grupo_574" transform="translate(38.484 1.195)">
			<path id="Trazado_2117" d="M380.9,49.5c2.9,1.7,6.3,2.7,9.7,2.8c7.6,0,10-4.9,9.9-8.5c-0.1-6.1-5.6-8.8-11.3-8.8h-3.3v-4.4h3.3
				c4.3,0,9.8-2.2,9.8-7.4c0-3.5-2.2-6.6-7.7-6.6c-3.1,0.1-6.2,1.1-8.7,2.9l-1.6-4.3c3.4-2.2,7.4-3.4,11.5-3.4
				c8.6,0,12.5,5.1,12.5,10.4c-0.1,4.9-3.4,9.1-8.1,10.3v0.1c5.6,0.8,9.8,5.6,9.8,11.2c0,7-5.4,13.1-16,13.1c-4,0-7.9-1-11.4-3
				L380.9,49.5z"/>
		</g>
		<g id="Grupo_575" transform="translate(5.888 9.595)">
			<path id="Trazado_2118" d="M79.6,140.9v-12.6H58.1v-4.1l20.6-29.6h6.8v28.7H92v4.9h-6.5v12.6L79.6,140.9z M79.6,123.3v-15.5
				c0-2.4,0.1-4.8,0.2-7.3h-0.2c-1.4,2.7-2.6,4.7-3.9,6.8l-11.3,15.8v0.1L79.6,123.3z"/>
		</g>
		<g id="Grupo_576" transform="translate(22.281 9.595)">
			<path id="Trazado_2119" d="M247,99.7h-17.4l-1.7,11.7c1.2-0.2,2.5-0.3,3.7-0.3c3.4-0.1,6.8,0.8,9.8,2.5c4.2,2.4,6.7,6.9,6.5,11.7
				c-0.1,8.7-7.3,15.7-16,15.6c-0.3,0-0.6,0-1,0c-4,0.1-7.9-0.9-11.4-2.8l1.6-4.7c3,1.6,6.4,2.5,9.8,2.5c5.5,0.4,10.4-3.7,10.8-9.3
				c0-0.2,0-0.4,0-0.6c-0.1-5.9-4-10.1-13.1-10.1c-2.1,0-4.2,0.2-6.3,0.5l3-21.9H247V99.7z"/>
		</g>
	</g>
</g>
</svg>
