<?xml version="1.0" encoding="utf-8"?>
<!-- Generator: Adobe Illustrator 23.0.0, SVG Export Plug-In . SVG Version: 6.00 Build 0)  -->
<svg version="1.1" id="Capa_1" xmlns="http://www.w3.org/2000/svg" xmlns:xlink="http://www.w3.org/1999/xlink" x="0px" y="0px"
	 viewBox="0 0 512 411.4" style="enable-background:new 0 0 512 411.4;" xml:space="preserve">
<style type="text/css">
	.st0{fill:#1D1D1B;}
</style>
<path class="st0" d="M419.1,353.1H261.3L150,195.3l75-75h214.2l-13.7,38c26-20.6,55.2-36.9,86.5-48.1
	c-31.2-11.2-60.4-27.5-86.5-48.1l13.7,38H216.6l-78.4,78.4l-88-124.9L89.1,43C57.3,33.6,27.2,19,0,0c8.8,32,12.3,65.2,10.5,98.4
	l23.2-33.1l90,127.8l-79.4,79.4l-17.1-36.6c-3.8,33-13,65.1-27.1,95.2c30-14.1,62.2-23.3,95.2-27.1l-36.7-17.3l76.9-76.9
	l115.3,163.6h168.3l-13.7,38c26-20.6,55.2-36.9,86.5-48.1c-31.2-11.2-60.5-27.5-86.5-48.1L419.1,353.1z"/>
</svg>
