<?xml version="1.0" standalone="no"?>
<!DOCTYPE svg PUBLIC "-//W3C//DTD SVG 20010904//EN"
 "http://www.w3.org/TR/2001/REC-SVG-20010904/DTD/svg10.dtd">
<svg version="1.0" xmlns="http://www.w3.org/2000/svg"
 width="700.000000pt" height="700.000000pt" viewBox="0 0 700.000000 700.000000"
 preserveAspectRatio="xMidYMid meet">
<metadata>
Created by potrace 1.11, written by Peter Selinger 2001-2013
</metadata>
<g transform="translate(0.000000,700.000000) scale(0.100000,-0.100000)"
fill="#000000" stroke="none">
<path d="M938 6965 c-2 -2 -48 -6 -103 -9 -87 -5 -170 -16 -330 -41 -36 -6
-317 -75 -322 -79 -13 -12 -83 -304 -98 -406 -3 -25 -8 -52 -10 -60 -19 -70
-28 -528 -13 -680 14 -140 36 -274 64 -390 9 -36 17 -69 18 -75 32 -148 143
-442 238 -629 200 -393 473 -736 816 -1023 41 -34 72 -65 70 -69 -2 -5 -43
-42 -91 -83 -438 -367 -779 -864 -964 -1405 -30 -90 -88 -293 -98 -349 -3 -12
-7 -33 -10 -47 -10 -46 -13 -66 -20 -121 -4 -30 -8 -56 -10 -59 -25 -41 -25
-757 0 -800 2 -3 6 -27 9 -55 10 -77 55 -273 79 -344 l22 -65 65 -18 c82 -23
273 -66 325 -73 202 -28 278 -33 500 -30 132 1 251 5 265 8 14 3 51 8 84 12
197 23 531 106 681 170 17 7 57 23 90 36 103 40 329 155 442 225 277 170 539
391 747 627 76 87 215 265 229 295 5 12 14 22 19 22 12 0 11 -2 -32 -60 -22
-29 -40 -57 -40 -61 0 -7 108 -144 169 -214 99 -113 278 -282 425 -400 56 -45
52 -42 207 -146 339 -226 739 -391 1124 -465 22 -4 47 -9 55 -10 8 -2 33 -5
55 -9 22 -3 51 -7 65 -10 136 -27 684 -27 790 0 8 2 35 7 60 10 83 11 104 16
225 46 189 47 179 42 197 102 9 28 24 86 33 127 9 41 21 88 26 103 4 15 8 272
9 570 0 549 0 542 -35 699 -15 70 -61 223 -95 317 -167 471 -429 874 -806
1243 -111 108 -158 150 -207 185 -34 24 -41 25 -60 14 -18 -11 -20 -11 -9 0
10 11 6 20 -25 47 l-38 34 43 -32 c41 -31 43 -32 68 -15 45 29 175 144 270
239 167 166 305 335 429 526 38 58 76 116 84 130 9 14 47 84 83 155 112 219
196 441 260 687 l32 123 4 555 c4 596 5 574 -51 779 l-32 114 -45 14 c-54 16
-193 50 -234 57 -16 3 -52 10 -80 15 -234 46 -597 56 -846 25 -25 -4 -56 -7
-70 -9 -24 -3 -122 -19 -185 -30 -16 -3 -48 -11 -70 -17 -22 -5 -48 -12 -59
-14 -158 -30 -501 -159 -680 -256 -229 -123 -422 -255 -601 -409 -153 -132
-334 -316 -415 -424 -70 -92 -73 -98 -60 -120 8 -12 54 -81 102 -152 76 -112
210 -358 260 -478 82 -194 172 -488 193 -630 4 -22 10 -55 15 -72 5 -18 5 -33
1 -33 -6 0 -17 44 -36 150 -21 114 -113 415 -160 525 -99 229 -167 358 -277
527 -49 75 -96 142 -104 149 -8 6 -14 20 -14 31 0 17 -41 73 -150 203 -32 39
-264 271 -310 310 -33 29 -142 115 -205 162 -45 34 -254 173 -260 173 -3 0
-23 11 -46 25 -78 50 -277 145 -414 199 -281 109 -577 178 -860 202 -80 6
-362 13 -367 9z m3212 -2682 c1 -5 3 -35 7 -68 7 -74 -3 -70 -12 5 -4 30 -9
58 -12 63 -2 4 1 7 6 7 6 0 11 -3 11 -7z m-396 -153 c5 0 7 -2 4 -5 -3 -3 -50
2 -104 11 -98 17 -133 15 -269 -12 -11 -2 -31 -6 -45 -9 -14 -2 -85 -19 -158
-37 l-133 -32 -19 -61 c-19 -58 -19 -38 1 36 8 32 15 38 52 48 85 23 304 70
372 81 38 6 71 12 72 14 2 2 52 -5 111 -15 59 -11 111 -19 116 -19z m93 -26
c-6 -6 -77 9 -77 16 0 4 18 3 40 -2 23 -6 39 -12 37 -14z m93 -21 c9 -9 -65 9
-74 18 -5 4 8 3 30 -2 21 -6 41 -13 44 -16z m62 -13 c21 -6 40 -15 42 -19 5
-7 -27 1 -84 22 -26 10 4 7 42 -3z m1579 -397 c13 -16 12 -17 -3 -4 -10 7 -18
15 -18 17 0 8 8 3 21 -13z m-2624 -40 c-3 -10 -5 -4 -5 12 0 17 2 24 5 18 2
-7 2 -21 0 -30z m-8 -90 c-2 -82 3 -117 47 -338 13 -66 31 -144 38 -174 20
-74 2 -51 -22 29 -53 173 -81 371 -74 518 3 61 12 32 11 -35z m2762 40 c13
-16 12 -17 -3 -4 -10 7 -18 15 -18 17 0 8 8 3 21 -13z m59 -107 c0 -3 -15 -14
-32 -26 l-33 -22 30 26 c31 27 35 29 35 22z m-70 -51 c0 -2 -20 -18 -45 -35
-25 -17 -45 -29 -45 -26 0 4 80 64 88 66 1 0 2 -2 2 -5z m-145 -101 c-26 -20
-55 -36 -55 -30 0 5 63 46 70 46 3 -1 -4 -8 -15 -16z m-65 -39 c0 -2 -10 -9
-22 -15 -22 -11 -22 -10 -4 4 21 17 26 19 26 11z m-125 -75 c-3 -5 -12 -10
-18 -10 -7 0 -6 4 3 10 19 12 23 12 15 0z m-40 -20 c-3 -5 -12 -10 -18 -10 -7
0 -6 4 3 10 19 12 23 12 15 0z m-135 -64 c0 -2 -7 -7 -16 -10 -8 -3 -12 -2 -9
4 6 10 25 14 25 6z m-110 -50 c0 -2 -7 -7 -16 -10 -8 -3 -12 -2 -9 4 6 10 25
14 25 6z m-940 -389 c-57 -348 -193 -729 -367 -1027 -92 -158 -133 -217 -133
-191 0 5 4 11 8 13 17 6 231 385 237 418 0 3 6 14 12 26 46 82 165 432 189
554 3 14 9 39 14 55 5 17 11 46 14 65 3 19 14 85 23 145 10 61 19 102 21 92 2
-10 -6 -77 -18 -150z"/>
</g>
</svg>
