<?xml version="1.0" encoding="utf-8"?>
<!-- Generator: Adobe Illustrator 23.0.0, SVG Export Plug-In . SVG Version: 6.00 Build 0)  -->
<svg version="1.1" id="Capa_1" xmlns="http://www.w3.org/2000/svg" xmlns:xlink="http://www.w3.org/1999/xlink" x="0px" y="0px"
	 viewBox="0 0 58.5 58.5" style="enable-background:new 0 0 58.5 58.5;" xml:space="preserve">
<style type="text/css">
	.st0{fill:#FFFFFF;}
	.st1{fill:#FEDB03;}
	.st2{fill:#FEBD00;}
	.st3{fill:#FE8E00;}
</style>
<g>
	<path class="st1" d="M29.7,10.9c-0.8-1-1.6-2-2.5-2.9C20,0.9,10.1-1.3,1.5,1.4c-2.7,8.5-0.4,18.5,6.7,25.6c0.8,0.8,1.6,1.5,2.5,2.2
		c4.1-3.2,9-5.1,13.8-5.5C25,19.2,26.8,14.8,29.7,10.9z"/>
	<path class="st1" d="M10.7,29.2c-0.9,0.7-1.7,1.4-2.5,2.2c-7.1,7.1-9.4,17.1-6.7,25.6c8.5,2.7,18.5,0.4,25.6-6.7
		c0.9-0.9,1.8-1.9,2.5-2.9c-2.9-3.8-4.6-8.3-5.1-12.7C19.7,34.2,14.9,32.4,10.7,29.2z"/>
	<path class="st1" d="M48.6,29.2c0.9-0.7,1.7-1.4,2.5-2.2c7.1-7.1,9.4-17.1,6.7-25.6C49.2-1.3,39.2,1,32.2,8.1
		C31.2,9,30.4,10,29.7,11c2.9,3.8,4.6,8.3,5.1,12.7C39.6,24.1,44.4,25.9,48.6,29.2z"/>
	<path class="st1" d="M48.6,29.2c-4.1,3.2-9,5.1-13.8,5.5c-0.5,4.4-2.2,8.9-5.1,12.7c0.8,1,1.6,2,2.5,2.9c7.1,7.1,17.1,9.4,25.6,6.7
		c2.7-8.5,0.4-18.5-6.7-25.6C50.3,30.6,49.5,29.8,48.6,29.2z"/>
	<path class="st2" d="M34.7,23.7c-0.5-4.4-2.2-8.9-5.1-12.7c-2.9,3.9-4.6,8.3-5.1,12.7c-4.8,0.4-9.7,2.3-13.8,5.5
		c4.1,3.2,9,5.1,13.8,5.5c0.5,4.4,2.2,8.9,5.1,12.7c2.9-3.8,4.6-8.3,5.1-12.7c4.8-0.4,9.7-2.3,13.8-5.5
		C44.4,25.9,39.6,24.1,34.7,23.7z M33.8,33.6c-1.4,0.4-2.8,0.7-4.2,0.9c-1.4-0.2-2.8-0.5-4.2-0.9c-0.5-1.4-0.8-2.9-0.9-4.5
		c0.2-1.5,0.5-3,0.9-4.5c1.4-0.4,2.8-0.7,4.2-0.9c1.4,0.2,2.8,0.5,4.2,0.9c0.5,1.4,0.8,2.9,0.9,4.5C34.6,30.7,34.3,32.2,33.8,33.6z"
		/>
	<path class="st3" d="M34.8,29.2c-0.2-1.5-0.5-3-0.9-4.5c-1.4-0.4-2.8-0.7-4.2-0.9c-1.4,0.2-2.8,0.5-4.2,0.9
		c-0.5,1.4-0.8,2.9-0.9,4.5c0.2,1.5,0.5,3,0.9,4.5c1.4,0.4,2.8,0.7,4.2,0.9c1.4-0.2,2.8-0.5,4.2-0.9C34.3,32.2,34.6,30.7,34.8,29.2z
		"/>
</g>
</svg>
